<svg width="24" height="24" viewBox="0 0 24 24" fill="none" xmlns="http://www.w3.org/2000/svg">
<path d="M21.4518 13.64V14.64C21.4518 14.91 21.2418 15.13 20.9618 15.14H19.5018C18.9718 15.14 18.4918 14.75 18.4518 14.23C18.4218 13.92 18.5418 13.63 18.7418 13.43C18.9218 13.24 19.1718 13.14 19.4418 13.14H20.9518C21.2418 13.15 21.4518 13.37 21.4518 13.64Z" fill="#7256FF"/>
<path d="M17.9921 12.69C17.4921 13.18 17.2521 13.91 17.4521 14.67C17.7121 15.6 18.6221 16.19 19.5821 16.19H20.4521C21.0021 16.19 21.4521 16.64 21.4521 17.19V17.38C21.4521 19.45 19.7621 21.14 17.6921 21.14H6.21215C4.14215 21.14 2.45215 19.45 2.45215 17.38V10.65C2.45215 9.42001 3.04215 8.33001 3.95215 7.65001C4.58215 7.17001 5.36215 6.89001 6.21215 6.89001H17.6921C19.7621 6.89001 21.4521 8.58001 21.4521 10.65V11.09C21.4521 11.64 21.0021 12.09 20.4521 12.09H19.4321C18.8721 12.09 18.3621 12.31 17.9921 12.69Z" fill="#7256FF"/>
<path d="M16.202 4.82C16.472 5.09 16.242 5.51 15.862 5.51L8.18201 5.5C7.74201 5.5 7.51201 4.96 7.83201 4.65L9.45201 3.02C10.822 1.66 13.042 1.66 14.412 3.02L16.162 4.79C16.172 4.8 16.192 4.81 16.202 4.82Z" fill="#7256FF"/>
</svg>
